<svg width="35" height="35" viewBox="0 0 35 35" fill="none" xmlns="http://www.w3.org/2000/svg">
<path d="M27.7083 5.83366H24.7917V2.91699H21.875V5.83366H13.125V2.91699H10.2083V5.83366H7.29167C5.68313 5.83366 4.375 7.14178 4.375 8.75033V29.167C4.375 30.7755 5.68313 32.0837 7.29167 32.0837H27.7083C29.3169 32.0837 30.625 30.7755 30.625 29.167V8.75033C30.625 7.14178 29.3169 5.83366 27.7083 5.83366ZM27.7113 29.167H7.29167V11.667H27.7083L27.7113 29.167Z" fill="black"/>
<path d="M16.0408 25.3955L24.3635 17.0728L22.3014 15.0107L16.0408 21.2714L12.6968 17.9274L10.6348 19.9895L16.0408 25.3955Z" fill="black"/>
</svg>
