<svg width="70" height="70" viewBox="0 0 70 70" fill="none" xmlns="http://www.w3.org/2000/svg">
<path d="M23.484 66.2402H46.5156C51.8258 66.2402 56.1447 61.9199 56.1447 56.6111V28.5414C59.3467 27.3902 61.6422 24.3236 61.6422 20.7307V20.557C61.6422 15.9811 57.9193 12.2582 53.3434 12.2582H44.4758C43.9576 7.48672 39.9066 3.75977 34.9998 3.75977C30.093 3.75977 26.042 7.48672 25.5238 12.2582H16.6562C12.0803 12.2582 8.35742 15.9811 8.35742 20.557V20.7307C8.35742 24.3236 10.6529 27.3902 13.8549 28.5414V56.6111C13.8549 61.9199 18.1738 66.2402 23.484 66.2402ZM51.7697 56.6111C51.7697 59.5082 49.4127 61.8652 46.5156 61.8652H23.484C20.5869 61.8652 18.2299 59.5082 18.2299 56.6111V29.0281H51.7711V56.6111H51.7697ZM34.9998 8.13477C37.4895 8.13477 39.573 9.90801 40.0529 12.2582H29.9453C30.4266 9.90801 32.5102 8.13477 34.9998 8.13477ZM12.7324 20.557C12.7324 18.3928 14.492 16.6332 16.6562 16.6332H27.6553H42.3457H53.3447C55.5076 16.6332 57.2686 18.3928 57.2686 20.557V20.7307C57.2686 22.8949 55.509 24.6545 53.3447 24.6545H16.6562C14.4934 24.6545 12.7324 22.8949 12.7324 20.7307V20.557Z" fill="black"/>
<path d="M29.3398 55.6512C30.5484 55.6512 31.5273 54.6723 31.5273 53.4637V37.4307C31.5273 36.2221 30.5484 35.2432 29.3398 35.2432C28.1312 35.2432 27.1523 36.2221 27.1523 37.4307V53.4637C27.1523 54.6709 28.1312 55.6512 29.3398 55.6512Z" fill="black"/>
<path d="M40.6602 55.6512C41.8688 55.6512 42.8477 54.6723 42.8477 53.4637V37.4307C42.8477 36.2221 41.8688 35.2432 40.6602 35.2432C39.4516 35.2432 38.4727 36.2221 38.4727 37.4307V53.4637C38.4727 54.6709 39.4529 55.6512 40.6602 55.6512Z" fill="black"/>
</svg>
