<svg width="37" height="37" viewBox="0 0 37 37" fill="none" xmlns="http://www.w3.org/2000/svg">
<g clip-path="url(#clip0_1111_29)">
<path d="M18.5 3.08301L10.0208 16.958H26.9792L18.5 3.08301ZM18.5 9.00301L21.4754 13.8747H15.5092L18.5 9.00301ZM26.9792 20.0413C23.1404 20.0413 20.0417 23.1401 20.0417 26.9788C20.0417 30.8176 23.1404 33.9163 26.9792 33.9163C30.8179 33.9163 33.9167 30.8176 33.9167 26.9788C33.9167 23.1401 30.8179 20.0413 26.9792 20.0413ZM26.9792 30.833C25.957 30.833 24.9767 30.4269 24.2539 29.7041C23.5311 28.9814 23.125 28.001 23.125 26.9788C23.125 25.9567 23.5311 24.9763 24.2539 24.2535C24.9767 23.5307 25.957 23.1247 26.9792 23.1247C28.0014 23.1247 28.9817 23.5307 29.7045 24.2535C30.4273 24.9763 30.8333 25.9567 30.8333 26.9788C30.8333 28.001 30.4273 28.9814 29.7045 29.7041C28.9817 30.4269 28.0014 30.833 26.9792 30.833ZM4.625 33.1455H16.9583V20.8122H4.625V33.1455ZM7.70833 23.8955H13.875V30.0622H7.70833V23.8955Z" fill="black"/>
</g>
<defs>
<clipPath id="clip0_1111_29">
<rect width="37" height="37" fill="black"/>
</clipPath>
</defs>
</svg>
