<svg width="30" height="30" viewBox="0 0 30 30" fill="none" xmlns="http://www.w3.org/2000/svg">
<path d="M30 4.73684V7.89474H25.2632V12.6316H22.1053V7.89474H17.3684V4.73684H22.1053V0H25.2632V4.73684H30ZM16.5789 15.7895C17.8863 15.7895 18.9474 14.7284 18.9474 13.4211C18.9474 12.1137 17.8863 11.0526 16.5789 11.0526C15.2716 11.0526 14.2105 12.1137 14.2105 13.4211C14.2105 14.7284 15.2716 15.7895 16.5789 15.7895ZM22.1053 20.8958L21.2953 19.9958C20.0416 18.5984 17.8532 18.5984 16.5963 19.9958L15.5621 21.1484L7.89474 12.6316L3.15789 17.8942V7.89474H14.2105V4.73684H3.15789C1.41316 4.73684 0 6.15 0 7.89474V26.8421C0 28.5868 1.41316 30 3.15789 30H22.1053C23.85 30 25.2632 28.5868 25.2632 26.8421V15.7895H22.1053V20.8958Z" fill="black"/>
</svg>
