<svg width="50" height="50" viewBox="0 0 50 50" fill="none" xmlns="http://www.w3.org/2000/svg">
<path d="M24.9993 46.8541C37.0575 46.8541 46.8327 37.0791 46.8327 25.0208C46.8327 12.9626 37.0575 3.1875 24.9993 3.1875C12.9411 3.1875 3.16602 12.9626 3.16602 25.0208C3.16602 37.0791 12.9411 46.8541 24.9993 46.8541Z" fill="white" stroke="white" stroke-width="2"/>
<path d="M25 14.458C20.6875 14.458 17.1875 17.958 17.1875 22.2704C17.1875 26.4996 20.5 29.9371 24.8958 30.0621C24.9583 30.0621 25.0417 30.0621 25.0833 30.0621C25.125 30.0621 25.1875 30.0621 25.2292 30.0621C25.25 30.0621 25.2708 30.0621 25.2708 30.0621C29.4792 29.9163 32.7917 26.4996 32.8125 22.2704C32.8125 17.958 29.3125 14.458 25 14.458Z" fill="#000435"/>
<path d="M39.127 40.3333C35.4186 43.75 30.4603 45.8542 25.002 45.8542C19.5436 45.8542 14.5853 43.75 10.877 40.3333C11.377 38.4375 12.7311 36.7083 14.7103 35.375C20.3978 31.5833 29.6478 31.5833 35.2936 35.375C37.2936 36.7083 38.627 38.4375 39.127 40.3333Z" fill="#000435"/>
</svg>
