<svg width="40" height="40" viewBox="0 0 40 40" fill="none" xmlns="http://www.w3.org/2000/svg">
<path d="M15.0007 28.3333V25M20.0007 28.3333V21.6667M25.0007 28.3333V18.3333M28.334 35H11.6673C10.7833 35 9.93542 34.6488 9.31029 34.0237C8.68517 33.3986 8.33398 32.5507 8.33398 31.6667V8.33333C8.33398 7.44928 8.68517 6.60143 9.31029 5.97631C9.93542 5.35119 10.7833 5 11.6673 5H20.9773C21.4193 5.00009 21.8432 5.17575 22.1557 5.48833L31.179 14.5117C31.4916 14.8242 31.6672 15.248 31.6673 15.69V31.6667C31.6673 32.5507 31.3161 33.3986 30.691 34.0237C30.0659 34.6488 29.218 35 28.334 35Z" stroke="black" stroke-width="3" stroke-linecap="round" stroke-linejoin="round"/>
</svg>
