<svg width="34" height="34" viewBox="0 0 34 34" fill="none" xmlns="http://www.w3.org/2000/svg">
<path d="M21.2495 27.098C22.4578 27.4488 23.7099 27.6263 24.9682 27.625C26.9918 27.6279 28.9891 27.1665 30.8063 26.2763C30.86 25.0066 30.4983 23.7539 29.7761 22.7082C29.0538 21.6625 28.0103 20.8808 26.8038 20.4815C25.5973 20.0822 24.2934 20.0871 23.0899 20.4955C21.8865 20.9039 20.8489 21.6935 20.1345 22.7446M21.2495 27.098V27.0937C21.2495 25.517 20.8443 24.0337 20.1345 22.7446M21.2495 27.098V27.2482C18.5231 28.8902 15.3995 29.7554 12.2168 29.75C8.91455 29.75 5.8248 28.8362 3.18696 27.2482L3.18555 27.0937C3.18446 25.0884 3.85083 23.1397 5.07961 21.555C6.30838 19.9702 8.02966 18.8394 9.97207 18.341C11.9145 17.8426 13.9675 18.0048 15.8076 18.8021C17.6476 19.5994 19.1699 20.9865 20.1345 22.7446M16.9995 9.03125C16.9995 10.2993 16.4957 11.5154 15.5991 12.4121C14.7024 13.3088 13.4863 13.8125 12.2182 13.8125C10.9501 13.8125 9.73402 13.3088 8.83736 12.4121C7.9407 11.5154 7.43696 10.2993 7.43696 9.03125C7.43696 7.76318 7.9407 6.54705 8.83736 5.6504C9.73402 4.75374 10.9501 4.25 12.2182 4.25C13.4863 4.25 14.7024 4.75374 15.5991 5.6504C16.4957 6.54705 16.9995 7.76318 16.9995 9.03125ZM28.687 12.2187C28.687 13.205 28.2952 14.1509 27.5978 14.8483C26.9004 15.5457 25.9545 15.9375 24.9682 15.9375C23.9819 15.9375 23.0361 15.5457 22.3387 14.8483C21.6413 14.1509 21.2495 13.205 21.2495 12.2187C21.2495 11.2325 21.6413 10.2866 22.3387 9.5892C23.0361 8.8918 23.9819 8.5 24.9682 8.5C25.9545 8.5 26.9004 8.8918 27.5978 9.5892C28.2952 10.2866 28.687 11.2325 28.687 12.2187Z" stroke="black" stroke-width="3" stroke-linecap="round" stroke-linejoin="round"/>
</svg>
